<svg data-v-423bf9ae="" xmlns="http://www.w3.org/2000/svg" viewBox="0 0 173.2041007220288 60" class="font"><!----><!----><!----><g data-v-423bf9ae="" id="43642118-499e-410a-bf6d-5700726f414b" fill="#FEFBFB" transform="matrix(6.122449456230433,0,0,6.122449456230433,-0.9183647399127892,-11.816328097660907)"><path d="M0.15 6.32L0.15 1.93L2.04 1.93L2.04 7.11L1.15 7.11L1.15 7.39L2.04 7.39L2.04 8.35L2.04 8.35Q2.04 9.68 2.51 9.91L2.51 9.91L2.51 9.91Q2.75 10.05 3.10 10.05L3.10 10.05L3.68 10.05L3.68 8.34L4.20 8.34L4.20 1.93L6.08 1.93L6.08 7.95L5.40 7.95L5.40 8.39L6.08 8.39L6.08 8.39Q6.06 8.61 6.06 8.71L6.06 8.71L6.06 10.63L5.08 10.63L5.08 11.73L0.70 11.73L0.70 10.38L0.29 10.38L0.29 6.32L0.15 6.32ZM2.04 7.39L2.04 7.11L3.10 7.11L3.10 7.39L2.04 7.39ZM5.17 10.71L5.17 10.71L5.24 10.71L5.24 10.71Q5.28 10.71 5.32 10.94L5.32 10.94L5.33 10.94L5.33 10.94Q5.40 10.74 5.40 10.71L5.40 10.71L5.50 10.71L5.50 10.71Q5.39 11.09 5.35 11.09L5.35 11.09L5.30 11.09L5.30 11.09Q5.27 11.09 5.17 10.71ZM6.80 1.93L6.80 1.93L8.80 1.93L8.80 1.93Q8.85 1.93 9.45 3.51L9.45 3.51L9.45 3.51Q9.50 3.56 10.71 6.60L10.71 6.60L11.22 6.60L11.22 1.93L12.97 1.93L12.97 7.49L13.17 7.49L13.17 9.66L12.46 9.66L12.46 10.08L13.17 10.08L13.17 11.37L10.54 11.37L10.54 9.73L10.08 9.73L10.08 9.73Q9.13 7.42 8.80 6.55L8.80 6.55L8.80 4.89L8.56 4.89L8.56 9.93L8.16 9.93L8.16 11.66L6.52 11.66L6.52 7.92L6.82 7.92L6.82 7.91L6.82 7.91Q6.80 3.07 6.80 1.93ZM13.06 5.35L13.06 4.98L13.24 4.98L13.24 4.98Q13.37 4.98 13.37 5.11L13.37 5.11L13.37 5.11Q13.37 5.16 13.32 5.16L13.32 5.16L13.32 5.16Q13.37 5.22 13.37 5.31L13.37 5.31L13.37 5.35L13.29 5.35L13.29 5.35Q13.28 5.21 13.24 5.21L13.24 5.21L13.16 5.21L13.16 5.35L13.06 5.35ZM13.28 5.06L13.16 5.06L13.16 5.15L13.24 5.15L13.24 5.15Q13.28 5.15 13.28 5.11L13.28 5.11L13.28 5.06ZM13.06 5.48L13.06 5.48L13.34 5.48L13.34 5.56L13.24 5.56L13.24 5.84L13.14 5.84L13.14 5.56L13.06 5.56L13.06 5.56Q13.02 5.56 13.02 5.52L13.02 5.52L13.02 5.51L13.02 5.51Q13.03 5.48 13.06 5.48ZM13.02 5.97L13.02 5.97L13.09 5.97L13.09 5.97Q13.13 5.97 13.17 6.19L13.17 6.19L13.21 6.19L13.25 5.97L13.36 5.97L13.24 6.34L13.16 6.34L13.16 6.34Q13.12 6.34 13.02 5.97ZM13.04 6.47L13.04 6.47L13.14 6.47L13.14 6.47Q13.15 6.53 13.21 6.57L13.21 6.57L13.21 6.57Q13.26 6.47 13.29 6.47L13.29 6.47L13.36 6.47L13.36 6.49L13.36 6.49Q13.25 6.64 13.25 6.67L13.25 6.67L13.25 6.67Q13.28 6.67 13.37 6.83L13.37 6.83L13.25 6.83L13.25 6.83Q13.25 6.78 13.19 6.73L13.19 6.73L13.19 6.73Q13.13 6.83 13.10 6.83L13.10 6.83L13.02 6.83L13.02 6.83Q13.14 6.66 13.14 6.65L13.14 6.65L13.14 6.65Q13.04 6.49 13.04 6.47ZM10.68 6.60L9.75 6.60L9.75 6.97L10.84 6.97L10.84 6.97Q10.71 6.60 10.68 6.60L10.68 6.60ZM12.03 6.60L11.24 6.60L11.24 6.97L10.86 6.97L10.86 6.97Q11.20 7.84 11.27 8.11L11.27 8.11L11.29 8.11L11.29 8.06L11.29 8.06Q11.24 7.16 11.24 6.97L11.24 6.97L12.03 6.97L12.03 6.60ZM13.06 7.33L13.06 6.97L13.22 6.97L13.22 6.97Q13.39 6.99 13.39 7.13L13.39 7.13L13.39 7.14L13.39 7.14Q13.39 7.33 13.24 7.33L13.24 7.33L13.06 7.33ZM13.24 7.05L13.16 7.05L13.16 7.26L13.16 7.26Q13.29 7.26 13.29 7.16L13.29 7.16L13.29 7.14L13.29 7.14Q13.29 7.06 13.24 7.05L13.24 7.05ZM10.18 9.83L10.18 9.83L10.42 9.83L10.42 9.91L10.25 9.91L10.25 9.97L10.39 9.97L10.39 9.97Q10.42 9.98 10.42 10.01L10.42 10.01L10.42 10.03L10.42 10.03Q10.42 10.06 10.39 10.06L10.39 10.06L10.25 10.06L10.25 10.12L10.41 10.12L10.41 10.12Q10.45 10.13 10.45 10.16L10.45 10.16L10.45 10.17L10.45 10.17Q10.45 10.21 10.41 10.21L10.41 10.21L10.18 10.21L10.18 10.21Q10.14 10.21 10.14 10.17L10.14 10.17L10.14 9.86L10.14 9.86Q10.15 9.83 10.18 9.83ZM8.19 10.01L8.19 10.01L8.29 10.01L8.29 10.01Q8.36 10.21 8.36 10.24L8.36 10.24L8.37 10.24L8.37 10.24Q8.42 10.01 8.46 10.01L8.46 10.01L8.52 10.01L8.52 10.03L8.52 10.03Q8.42 10.38 8.39 10.38L8.39 10.38L8.31 10.38L8.31 10.38Q8.31 10.33 8.19 10.01ZM10.31 10.32L10.31 10.32L10.34 10.32L10.34 10.32Q10.38 10.33 10.38 10.36L10.38 10.36L10.38 10.58L10.38 10.58Q10.38 10.66 10.29 10.71L10.29 10.71L10.25 10.71L10.25 10.71Q10.13 10.71 10.13 10.59L10.13 10.59L10.13 10.55L10.21 10.55L10.21 10.55Q10.21 10.62 10.25 10.62L10.25 10.62L10.27 10.62L10.27 10.36L10.27 10.36Q10.28 10.32 10.31 10.32ZM10.18 10.82L10.18 10.82L10.21 10.82L10.21 10.82Q10.25 10.82 10.25 10.95L10.25 10.95L10.39 10.82L10.48 10.82L10.48 10.83L10.34 10.99L10.34 10.99Q10.36 10.99 10.49 11.18L10.49 11.18L10.46 11.20L10.41 11.20L10.41 11.20Q10.39 11.20 10.27 11.05L10.27 11.05L10.27 11.05Q10.25 11.05 10.23 11.20L10.23 11.20L10.18 11.20L10.18 11.20Q10.14 11.20 10.14 11.17L10.14 11.17L10.14 10.86L10.14 10.86Q10.15 10.82 10.18 10.82ZM10.54 11.73L10.54 11.55L13.72 11.55L13.72 11.73L10.54 11.73ZM14.46 1.93L14.46 1.93L16.31 1.93L16.31 1.93Q16.34 1.94 16.34 1.97L16.34 1.97L16.34 6.73L16.34 6.73Q16.34 6.76 16.31 6.76L16.31 6.76L16.09 6.76L16.09 11.70L16.09 11.70Q16.09 11.73 16.06 11.73L16.06 11.73L14.46 11.73L14.46 11.73Q14.43 11.73 14.43 11.70L14.43 11.70L14.43 6.64L13.94 6.64L13.94 6.64Q13.90 6.64 13.90 6.61L13.90 6.61L13.90 6.40L13.90 6.40Q13.91 6.36 13.94 6.36L13.94 6.36L14.43 6.36L14.43 1.97L14.43 1.97Q14.44 1.93 14.46 1.93ZM15.39 6.36L14.44 6.36L14.44 6.64L15.39 6.64L15.39 6.36ZM16.35 3.57L16.35 1.93L22.09 1.93L22.09 3.57L20.19 3.57L20.19 10.34L21.05 10.34L21.05 10.54L20.19 10.54L20.19 11.29L19.68 11.29L19.68 11.55L20.04 11.55L20.04 11.73L18.30 11.73L18.30 11.73Q18.27 11.73 18.27 11.70L18.27 11.70L18.27 3.57L16.35 3.57ZM20.18 10.34L19.52 10.34L19.52 10.54L20.18 10.54L20.18 10.34ZM22.25 1.93L22.25 1.93L24.18 1.93L24.18 1.93Q24.18 3.34 24.67 4.33L24.67 4.33L24.67 4.33Q25.20 5.62 25.40 6.38L25.40 6.38L25.40 6.39L25.42 6.39L25.42 6.39Q25.66 5.49 26.43 3.60L26.43 3.60L26.43 3.60Q26.63 2.69 26.63 1.93L26.63 1.93L28.44 1.93L28.44 1.93Q28.28 3.40 28.03 4.10L28.03 4.10L26.95 6.58L26.28 6.58L26.28 8.27L25.28 8.27L25.28 8.60L26.28 8.60L26.28 11.73L24.41 11.73L24.41 11.73Q24.38 11.73 24.38 11.70L24.38 11.70L24.38 10.17L24.08 10.17L24.08 7.45L24.64 7.45L24.64 7.20L24.03 7.20L24.03 7.20Q23.95 7.11 22.89 4.65L22.89 4.65L22.89 4.65Q22.45 3.66 22.45 3.46L22.45 3.46L23.26 3.46L23.26 3.12L22.38 3.12L22.38 3.12Q22.25 2.03 22.25 1.93ZM21.08 3.46L21.08 3.12L22.38 3.12L22.44 3.46L21.08 3.46ZM26.37 6.73L26.37 6.64L26.67 6.64L26.67 6.71L26.48 6.94L26.67 6.94L26.67 6.99L26.67 6.99Q26.67 7.02 26.63 7.02L26.63 7.02L26.39 7.02L26.39 7.02Q26.35 7.02 26.35 6.99L26.35 6.99L26.35 6.95L26.54 6.73L26.37 6.73ZM26.28 8.60L26.28 8.27L27.09 8.27L27.09 8.60L26.28 8.60Z"></path></g><!----><!----></svg>